<?xml version="1.0" standalone="no"?>
<!DOCTYPE svg PUBLIC "-//W3C//DTD SVG 20010904//EN"
 "http://www.w3.org/TR/2001/REC-SVG-20010904/DTD/svg10.dtd">
<svg version="1.0" xmlns="http://www.w3.org/2000/svg"
 width="1280.000000pt" height="904.000000pt" viewBox="0 0 1280.000000 904.000000"
 preserveAspectRatio="xMidYMid meet">
<metadata>
Created by potrace 1.15, written by Peter Selinger 2001-2017
</metadata>
<g transform="translate(0.000000,904.000000) scale(0.100000,-0.100000)"
fill="#fca5a5" stroke="none">
<path d="M9450 8710 c-19 -5 -73 -11 -120 -14 -100 -7 -306 -32 -370 -46 -38
-8 -243 -14 -360 -10 -19 1 -48 1 -65 1 -16 -1 -88 -1 -160 -1 -218 0 -515
-11 -539 -20 -12 -4 -45 -8 -74 -8 -28 -1 -61 -7 -74 -14 -13 -7 -50 -16 -83
-19 -33 -4 -89 -15 -125 -24 -36 -9 -100 -23 -143 -30 -43 -8 -104 -23 -135
-33 -31 -11 -97 -32 -147 -47 -49 -15 -129 -40 -176 -56 -47 -16 -96 -29 -108
-29 -12 0 -35 -7 -50 -15 -16 -8 -75 -30 -132 -50 -56 -19 -110 -42 -118 -49
-9 -8 -27 -19 -41 -25 -14 -6 -32 -15 -40 -20 -8 -5 -36 -17 -62 -26 -26 -9
-58 -27 -70 -41 -13 -13 -31 -24 -40 -24 -10 0 -18 -4 -18 -10 0 -5 -15 -17
-32 -26 -18 -9 -56 -34 -84 -55 -28 -22 -54 -39 -58 -39 -5 0 -22 -10 -39 -22
-18 -13 -61 -38 -97 -56 -36 -19 -72 -39 -80 -46 -8 -7 -28 -18 -45 -25 -16
-7 -61 -34 -100 -59 -38 -26 -86 -55 -105 -65 -19 -11 -49 -30 -66 -42 -16
-13 -47 -30 -67 -38 -19 -9 -60 -33 -89 -55 -29 -21 -68 -47 -87 -57 -19 -9
-39 -21 -45 -27 -6 -5 -49 -33 -96 -63 -47 -29 -93 -61 -104 -70 -10 -9 -37
-30 -60 -46 -22 -15 -63 -46 -91 -68 -79 -64 -126 -96 -190 -131 -33 -18 -89
-52 -125 -75 -36 -23 -77 -48 -91 -56 -127 -69 -278 -191 -459 -370 -82 -81
-164 -172 -187 -209 -23 -36 -52 -78 -65 -94 -53 -69 -136 -242 -149 -311 -5
-27 -13 -70 -19 -95 -5 -25 -9 -48 -10 -51 0 -4 -51 -50 -112 -102 -173 -147
-228 -208 -281 -312 -54 -106 -87 -180 -87 -196 0 -8 -7 -25 -16 -38 -15 -21
-21 -22 -70 -16 -30 3 -78 15 -108 26 -30 10 -81 21 -113 25 -64 7 -114 20
-218 59 -341 127 -354 130 -510 115 -198 -19 -290 -47 -492 -150 -104 -53
-184 -88 -194 -85 -9 3 -19 -1 -22 -8 -8 -20 -85 -45 -197 -64 -90 -15 -186
-18 -445 -12 -94 2 -123 -1 -201 -24 -145 -42 -183 -61 -199 -102 -34 -80 -15
-133 96 -256 174 -195 398 -384 519 -441 171 -80 408 -146 644 -178 72 -10
158 -24 191 -30 33 -6 85 -16 115 -21 30 -6 71 -15 90 -21 22 -7 138 -10 320
-10 319 2 318 2 375 -72 26 -35 26 -36 10 -68 -26 -52 -31 -163 -10 -233 23
-75 35 -142 42 -221 4 -51 1 -69 -21 -114 -14 -30 -26 -58 -26 -63 0 -6 -18
-41 -40 -79 -33 -58 -42 -85 -52 -161 -22 -165 -10 -316 28 -348 8 -6 14 -17
14 -24 0 -8 17 -44 37 -82 l37 -68 7 -180 c3 -99 13 -209 20 -243 l13 -64 -61
-56 c-37 -36 -70 -78 -88 -115 -25 -52 -27 -65 -23 -136 4 -67 11 -92 45 -163
93 -190 93 -209 1 -290 -33 -29 -80 -72 -105 -96 l-46 -42 5 -64 c7 -78 28
-109 98 -146 27 -14 77 -45 112 -69 66 -46 122 -64 226 -76 60 -7 62 -8 62
-36 0 -16 -5 -29 -10 -29 -6 0 -4 -10 5 -23 8 -12 26 -54 39 -92 37 -102 82
-140 217 -183 57 -19 121 -40 142 -48 20 -8 57 -14 80 -14 69 0 301 81 407
142 51 29 129 73 174 97 91 49 132 82 187 151 30 39 45 48 79 54 23 4 58 15
79 25 90 46 169 81 183 81 8 0 23 8 32 19 9 10 38 25 64 32 64 18 143 60 156
84 23 40 97 135 119 150 12 8 36 15 55 15 40 0 92 25 92 45 0 8 14 30 30 48
17 19 30 41 30 49 0 8 15 25 33 38 17 13 57 45 88 72 30 26 59 48 64 48 4 0
25 15 45 33 21 17 71 57 110 87 39 30 86 72 103 95 16 22 58 69 93 105 34 36
76 92 92 125 32 63 72 188 72 223 0 29 10 52 24 52 12 -1 56 -86 56 -108 0
-17 115 -241 165 -321 22 -35 55 -81 73 -102 18 -21 51 -71 72 -111 106 -198
120 -230 132 -300 15 -86 18 -367 4 -386 -13 -18 -11 -131 3 -145 6 -6 11 -23
11 -37 0 -14 7 -35 15 -46 8 -12 16 -48 18 -80 1 -33 6 -65 10 -71 4 -7 40
-22 80 -33 40 -12 83 -25 97 -30 14 -5 66 -12 115 -15 50 -3 133 -13 185 -22
117 -20 247 -21 365 -4 50 7 104 14 120 15 67 5 147 66 172 131 7 19 19 50 26
69 7 18 19 41 26 50 12 14 12 24 1 59 -28 92 -51 242 -50 334 0 23 -4 44 -10
48 -5 3 -10 20 -10 37 0 16 -6 44 -14 61 -8 18 -17 46 -19 62 -3 17 -10 47
-15 67 -13 50 -8 305 7 350 9 27 10 60 2 125 -5 48 -6 95 -1 103 4 8 11 49 14
90 8 86 32 207 46 232 6 10 10 24 10 33 0 8 11 48 25 89 14 41 25 82 25 90 0
9 11 33 24 54 12 20 26 51 29 67 3 17 20 82 38 145 54 196 74 393 48 496 -17
68 0 87 91 101 70 11 74 11 113 -14 22 -14 58 -27 80 -29 21 -2 57 -9 78 -14
29 -8 61 -7 131 5 51 9 97 19 102 23 6 3 30 9 53 14 67 12 126 26 150 33 16 5
25 1 37 -17 17 -26 13 -49 -22 -128 -11 -25 -22 -67 -23 -95 -3 -50 -9 -74
-50 -190 -11 -33 -24 -74 -29 -92 -13 -52 -80 -148 -166 -237 -61 -64 -91
-104 -121 -168 -23 -45 -44 -95 -47 -110 -3 -15 -15 -32 -26 -38 -11 -6 -20
-16 -20 -23 0 -7 -15 -25 -32 -40 -226 -192 -268 -247 -268 -352 0 -44 2 -47
38 -61 20 -8 51 -22 69 -30 17 -8 38 -14 48 -14 9 0 30 -8 48 -17 27 -15 67
-18 257 -21 124 -2 265 -3 313 -3 48 1 97 -4 107 -9 15 -8 26 -7 42 4 13 8 58
19 101 24 42 6 95 20 117 31 23 12 47 21 54 21 7 0 21 9 32 21 17 18 113 69
132 69 4 0 25 21 46 46 42 49 38 32 67 284 6 47 19 102 30 122 31 59 56 170
75 333 4 33 10 65 15 71 5 5 15 37 24 69 19 73 42 142 61 177 8 14 14 33 14
41 0 19 76 167 99 192 10 11 22 30 25 42 4 12 33 49 64 81 42 44 73 91 114
174 56 111 84 191 74 207 -7 11 14 144 25 157 5 6 16 34 24 62 35 115 96 164
154 123 50 -36 179 -166 194 -196 8 -17 24 -39 36 -49 12 -11 21 -24 21 -30 0
-6 13 -30 28 -52 76 -115 104 -154 151 -203 28 -30 51 -58 51 -62 0 -4 15 -16
33 -28 18 -11 68 -56 112 -101 44 -44 91 -87 105 -95 14 -7 83 -70 153 -139
159 -156 170 -179 169 -321 -2 -140 -27 -330 -60 -448 -13 -50 -24 -65 -74
-109 -32 -27 -58 -55 -58 -60 0 -6 -13 -27 -30 -48 -16 -21 -30 -49 -30 -62 0
-13 -7 -33 -15 -44 -8 -10 -15 -39 -15 -63 0 -63 -32 -119 -118 -207 -75 -77
-128 -168 -116 -198 3 -8 1 -23 -5 -33 -10 -21 0 -88 17 -105 15 -15 122 -40
187 -43 81 -5 186 -20 265 -38 98 -22 463 -24 550 -2 93 24 171 35 198 28 29
-7 82 48 82 86 0 14 11 49 23 76 13 28 27 64 31 80 4 17 24 55 44 85 24 37 35
64 34 85 -8 111 -4 336 7 375 19 73 25 147 12 178 -10 23 -6 49 23 162 41 162
58 212 107 310 90 183 133 260 183 326 79 104 78 103 72 217 -9 181 -14 221
-30 252 -9 17 -16 36 -16 43 0 8 -6 26 -14 40 -34 64 -59 138 -70 203 -10 55
-19 210 -16 249 4 40 4 73 1 185 -2 115 -2 116 14 165 8 25 19 83 25 129 5 46
15 90 20 96 7 9 7 27 1 56 -8 34 -7 49 4 66 8 12 15 43 15 68 0 51 16 126 36
170 8 17 21 87 28 156 8 69 22 146 31 172 9 26 20 95 25 154 10 116 13 485 5
568 -3 28 -7 84 -10 125 -3 41 -8 82 -11 90 -6 14 -24 85 -43 170 -4 19 -17
51 -29 72 -11 20 -25 62 -31 94 -6 32 -22 74 -35 94 -45 65 -66 114 -66 152 0
20 -4 40 -10 43 -5 3 -10 14 -10 24 0 9 -9 36 -20 59 -11 22 -20 46 -20 52 0
6 -11 26 -25 44 -14 18 -25 38 -25 44 0 6 -9 16 -20 22 -31 17 -100 109 -100
134 0 13 -9 31 -20 41 -11 10 -20 24 -20 31 0 8 -11 21 -25 30 -14 9 -32 31
-39 48 -7 17 -38 57 -69 90 -32 32 -57 63 -57 68 0 15 -263 272 -325 318 -30
22 -55 44 -55 49 0 4 -10 19 -22 32 -41 44 -206 189 -216 189 -5 0 -30 23 -56
50 -26 28 -53 50 -60 50 -7 0 -23 12 -37 26 -13 14 -40 34 -59 44 -19 10 -59
39 -88 64 -30 25 -62 46 -71 46 -10 0 -35 11 -55 25 -20 14 -40 25 -44 25 -4
1 -25 9 -47 20 -22 11 -44 19 -49 20 -5 0 -18 8 -28 17 -11 10 -29 18 -41 19
-32 2 -109 26 -132 41 -11 7 -29 13 -40 13 -12 0 -25 4 -30 9 -6 5 -32 11 -60
14 -27 3 -72 10 -100 16 -194 40 -600 70 -685 51z"/>
</g>
</svg>
