<?xml version="1.0" standalone="no"?>
<!DOCTYPE svg PUBLIC "-//W3C//DTD SVG 20010904//EN"
 "http://www.w3.org/TR/2001/REC-SVG-20010904/DTD/svg10.dtd">
<svg version="1.0" xmlns="http://www.w3.org/2000/svg"
 width="1280.000000pt" height="1272.000000pt" viewBox="0 0 1280.000000 1272.000000"
 preserveAspectRatio="xMidYMid meet">
<metadata>
Created by potrace 1.15, written by Peter Selinger 2001-2017
</metadata>
<g transform="translate(0.000000,1272.000000) scale(0.100000,-0.100000)"
fill="#fca5a5" stroke="none">
<path d="M5670 12559 c-218 -262 -343 -401 -555 -619 -110 -113 -223 -239
-251 -280 -105 -153 -174 -321 -218 -525 -13 -64 -27 -119 -29 -122 -3 -3
-142 0 -308 7 -690 29 -965 -19 -1447 -250 -392 -189 -544 -308 -830 -647
-272 -324 -499 -666 -657 -988 -161 -331 -197 -492 -280 -1259 -53 -491 -64
-534 -159 -659 -86 -113 -133 -189 -213 -347 -86 -170 -94 -176 -235 -182 -94
-4 -111 -8 -182 -42 -96 -46 -178 -126 -228 -223 -58 -110 -72 -171 -73 -313
0 -180 10 -197 133 -220 94 -17 94 -17 111 219 13 174 25 187 204 205 83 8 77
18 107 -195 54 -394 123 -585 262 -734 68 -73 178 -135 274 -155 110 -23 171
18 239 158 21 45 42 79 46 74 3 -4 22 -45 42 -92 72 -170 122 -408 163 -773
11 -94 19 -294 24 -592 9 -516 2 -470 124 -885 135 -458 171 -675 201 -1207 8
-147 20 -293 26 -323 15 -71 43 -126 136 -263 71 -104 98 -156 213 -402 76
-165 221 -355 269 -355 28 0 42 31 57 123 25 154 66 166 184 52 72 -69 126
-105 160 -105 50 0 63 38 49 141 -22 152 -104 382 -244 679 -151 319 -211 570
-235 976 -18 304 8 610 66 782 41 124 129 255 247 370 l44 43 47 -183 c69
-263 103 -445 126 -673 36 -342 53 -393 178 -522 91 -94 137 -160 193 -276 87
-182 129 -246 220 -334 55 -52 120 -93 149 -93 25 0 67 50 85 99 30 87 56 92
112 24 57 -72 62 -74 121 -69 40 4 54 1 59 -10 3 -7 -2 -53 -11 -101 -32 -183
-59 -590 -60 -908 l-1 -250 31 -3 c50 -5 112 49 156 137 47 94 52 99 72 70 22
-35 34 -98 46 -244 13 -169 28 -242 55 -273 20 -23 25 -24 39 -13 32 27 136
262 245 552 61 163 139 361 174 440 112 252 212 580 467 1523 61 226 113 412
115 414 2 3 123 -3 269 -13 171 -11 326 -16 438 -13 158 5 185 9 310 42 76 20
157 36 182 36 l44 0 35 -68 c19 -37 78 -161 131 -276 147 -318 263 -515 479
-809 175 -239 283 -410 359 -567 39 -80 86 -168 104 -195 18 -28 91 -104 161
-169 123 -114 251 -247 339 -353 75 -88 338 -258 382 -246 32 8 33 27 10 122
-12 48 -18 95 -15 104 8 21 54 22 162 2 44 -8 97 -14 117 -15 44 0 71 23 62
54 -12 44 -121 229 -268 456 -84 129 -187 294 -228 365 -269 463 -532 1030
-686 1476 -88 256 -168 612 -155 695 l5 31 201 6 c227 7 324 17 546 53 242 40
335 66 383 110 48 43 179 107 263 129 32 8 89 15 125 15 173 0 758 159 962
261 99 49 215 131 318 224 124 111 215 174 320 219 364 159 717 424 891 669
151 211 335 762 369 1101 6 60 18 122 26 137 15 29 24 37 164 141 99 73 322
291 368 360 57 84 66 141 66 433 0 573 -112 1134 -320 1603 -119 269 -122 300
-22 315 53 8 184 67 265 120 111 71 130 132 99 309 -21 117 -54 203 -102 272
-155 219 -302 557 -514 1182 -244 720 -386 1011 -594 1220 -108 107 -210 164
-341 190 -140 27 -358 3 -480 -55 -136 -64 -351 -252 -629 -549 l-179 -192
-60 53 c-377 330 -503 419 -677 479 -149 52 -240 60 -652 59 -622 -2 -896 -21
-1030 -71 -29 -11 -131 -65 -227 -120 l-174 -100 -201 144 c-418 297 -509 355
-611 383 -33 9 -129 15 -280 19 l-230 5 -135 -162z m565 -143 c62 -16 100 -36
191 -97 181 -122 423 -354 560 -536 89 -119 144 -163 202 -163 37 0 72 39 72
79 0 46 49 128 108 182 91 83 303 218 365 233 279 66 1137 122 1297 85 25 -5
84 -30 132 -54 267 -135 536 -375 722 -645 112 -162 226 -285 431 -465 55 -48
101 -90 103 -94 1 -3 -87 -6 -195 -6 -170 0 -203 -2 -230 -18 -100 -54 -156
-298 -133 -581 20 -261 61 -431 141 -590 34 -67 49 -107 45 -122 -3 -12 -43
-71 -88 -131 -44 -59 -97 -141 -115 -182 -41 -86 -54 -170 -30 -189 24 -20 57
2 178 115 114 106 208 165 347 221 81 33 202 54 202 36 0 -13 -100 -154 -217
-307 -113 -147 -162 -232 -144 -250 17 -17 40 -1 201 143 249 222 362 290 492
298 72 4 78 3 102 -21 14 -14 26 -31 26 -36 0 -6 -17 -27 -38 -48 -80 -80
-263 -417 -287 -529 -8 -38 -21 -93 -29 -121 -8 -30 -10 -55 -5 -59 15 -9 98
82 223 246 274 358 511 524 766 537 112 6 182 -6 269 -47 162 -77 291 -227
417 -486 67 -137 138 -350 158 -469 22 -136 28 -372 16 -645 -16 -371 -28
-419 -125 -516 -62 -62 -175 -121 -285 -148 -240 -58 -592 -36 -985 64 -341
86 -490 179 -613 381 -56 93 -75 114 -92 104 -15 -9 -12 -49 12 -167 15 -75
19 -111 12 -118 -7 -7 -34 -7 -85 0 -279 40 -782 142 -989 201 -394 113 -702
373 -884 748 -25 52 -46 108 -46 125 0 41 32 95 146 248 123 164 184 270 184
320 0 33 -3 38 -23 38 -16 0 -31 -12 -48 -37 -35 -55 -226 -147 -545 -262
-391 -141 -553 -229 -704 -382 -84 -85 -131 -157 -167 -257 -31 -84 -36 -175
-11 -180 12 -2 26 11 45 44 79 134 151 200 298 273 92 45 257 97 407 130 115
25 149 26 187 6 46 -23 57 -64 71 -259 13 -177 42 -414 71 -576 148 -843 336
-1275 660 -1515 190 -141 384 -176 601 -109 107 33 359 158 468 232 106 72
154 131 260 320 158 279 223 387 287 474 l65 87 67 -33 c187 -95 354 -152 671
-231 207 -51 358 -83 439 -92 86 -8 86 -9 84 -105 -3 -150 -60 -367 -164 -620
-154 -376 -356 -635 -604 -774 -95 -54 -159 -78 -298 -115 -201 -52 -232 -70
-418 -244 -178 -168 -367 -289 -579 -371 -398 -154 -662 -154 -1120 -4 -194
64 -205 71 -705 452 -74 56 -144 93 -156 81 -15 -15 29 -151 86 -270 65 -137
119 -219 154 -237 14 -8 71 -56 126 -106 126 -116 222 -184 278 -199 53 -13
71 -32 63 -65 -24 -98 -500 -125 -996 -56 -74 10 -254 44 -400 75 -146 31
-303 59 -349 62 l-84 6 79 -79 c43 -44 96 -101 117 -127 41 -50 100 -87 139
-87 31 0 88 -36 88 -55 0 -46 -170 -67 -507 -63 -138 2 -251 2 -250 2 1 -1 79
-41 173 -88 177 -89 254 -137 254 -159 0 -27 -210 -136 -322 -167 -109 -31
-271 -39 -589 -30 -331 9 -344 12 -344 75 0 22 3 54 7 70 10 44 -3 61 -33 45
-45 -24 -161 -122 -180 -154 -29 -46 -37 -87 -49 -236 -20 -255 -53 -397 -235
-1018 -70 -235 -139 -482 -156 -550 -31 -130 -49 -173 -111 -265 -54 -79 -101
-181 -144 -309 -39 -118 -73 -172 -95 -151 -7 7 -16 43 -20 80 -5 52 -12 71
-29 85 -49 39 -105 16 -173 -71 -48 -63 -67 -75 -67 -43 0 33 28 229 89 627
33 215 71 473 85 575 125 918 168 1702 93 1677 -7 -2 -20 -41 -29 -88 -30
-148 -48 -224 -57 -238 -8 -12 -19 -11 -73 9 -165 60 -524 246 -853 443 -220
132 -326 203 -403 272 -87 78 -87 79 -116 370 -15 143 -33 305 -41 359 -29
193 -73 311 -102 274 -30 -37 -53 -207 -53 -385 0 -260 -92 -554 -368 -1178
-134 -303 -148 -339 -167 -434 -32 -154 -47 -716 -25 -924 28 -268 92 -452
248 -712 63 -104 111 -205 112 -232 0 -22 -33 -14 -93 23 -43 27 -61 33 -67
24 -4 -6 -10 -45 -14 -86 -8 -87 -13 -104 -31 -104 -22 0 -52 50 -100 166 -53
126 -86 185 -130 235 -42 47 -45 77 -43 409 2 405 -45 767 -154 1165 -62 228
-68 288 -68 715 0 559 -16 731 -100 1067 -75 303 -181 644 -300 963 -107 286
-177 596 -250 1095 -40 278 -46 454 -26 725 68 888 222 1350 626 1879 120 157
368 440 515 586 145 144 257 225 419 304 465 227 970 331 1458 300 264 -16
359 -37 379 -83 4 -12 22 -74 39 -139 112 -431 337 -947 621 -1422 132 -220
211 -327 334 -451 120 -120 335 -288 430 -334 83 -41 195 -54 336 -40 163 16
241 50 323 141 78 87 176 279 212 414 23 89 38 556 25 749 -14 190 -37 298
-146 671 -278 954 -331 1232 -294 1550 19 163 14 184 -35 171 -45 -11 -118
-127 -209 -333 l-44 -100 39 -124 c481 -1513 491 -1550 490 -1899 0 -102 -5
-230 -12 -285 -38 -313 -146 -517 -315 -597 -87 -40 -221 -51 -306 -23 -368
118 -807 784 -1122 1701 -99 287 -137 484 -137 699 0 268 69 467 218 627 26
28 101 96 167 152 66 55 219 198 340 316 270 266 340 322 435 351 40 12 121
10 175 -5z m5177 -151 c95 -33 180 -136 278 -335 95 -191 173 -411 250 -700
159 -597 206 -719 390 -1010 102 -161 149 -249 175 -328 21 -66 23 -138 4
-158 -22 -22 -124 -35 -189 -25 -153 25 -375 158 -496 297 -346 399 -775 1251
-924 1831 -39 151 -62 213 -80 213 -17 0 -40 -32 -51 -73 -22 -81 -5 -336 40
-592 55 -313 90 -589 73 -570 -5 6 -37 48 -72 95 -88 118 -218 250 -396 401
-151 127 -216 200 -229 252 -27 104 307 444 591 603 82 46 208 91 302 109 97
18 268 13 334 -10z m-861 -1502 c64 -74 115 -215 194 -533 43 -174 64 -324 49
-347 -17 -27 -32 -26 -63 5 -32 32 -52 91 -96 287 -35 156 -89 290 -176 437
-42 72 -69 128 -67 141 4 27 42 47 89 47 30 0 43 -7 70 -37z m-427 -329 c-4
-35 -11 -64 -15 -64 -10 0 -12 113 -2 149 l6 25 9 -24 c4 -12 5 -51 2 -86z
m955 75 c12 -17 54 -90 93 -162 87 -163 167 -281 267 -393 107 -122 162 -194
155 -206 -22 -35 -382 -238 -423 -238 -41 0 -78 28 -95 71 -40 99 -70 438 -64
721 4 235 17 275 67 207z m-660 -202 c81 -234 73 -266 -79 -325 -97 -38 -104
-39 -124 -10 -25 35 -20 65 15 90 53 38 84 130 124 362 3 21 8 36 9 35 2 -2
26 -71 55 -152z m-1605 -2854 c258 -119 602 -293 621 -313 l19 -21 -29 7 c-17
4 -86 27 -155 52 -106 37 -133 43 -178 39 -114 -12 -202 -97 -291 -281 -75
-156 -82 -162 -111 -94 -30 70 -65 210 -85 343 -18 124 -31 325 -22 349 8 19
38 8 231 -81z m1446 -462 c77 -11 114 -21 112 -29 -4 -23 -169 -267 -210 -312
-29 -33 -43 -42 -52 -34 -34 33 -130 304 -130 366 l0 28 83 -1 c45 0 134 -8
197 -18z m-9180 -30 c25 -49 5 -95 -81 -181 -33 -34 -66 -80 -84 -120 -51
-109 -70 -143 -80 -139 -35 14 75 308 155 417 35 47 72 56 90 23z m8138 -15
c15 -8 53 -42 85 -75 68 -72 79 -74 194 -35 144 48 307 41 364 -15 52 -52 65
-292 23 -421 -25 -76 -107 -158 -189 -189 -124 -47 -288 -37 -458 29 -138 53
-232 126 -271 210 -17 37 -21 64 -21 160 0 104 3 121 27 172 68 146 161 208
246 164z m-8606 -426 c19 -24 23 -66 8 -90 -8 -13 -17 -12 -72 7 -35 12 -76
24 -93 27 -16 2 -47 7 -67 11 -21 3 -38 10 -38 14 0 8 75 44 115 54 11 3 44 4
74 3 42 -2 58 -8 73 -26z m508 5 c17 -20 19 -87 3 -92 -16 -6 -53 54 -53 85 0
26 31 30 50 7z m-93 -215 c72 -43 167 -199 214 -350 34 -108 34 -285 1 -383
-30 -85 -76 -137 -122 -137 -28 0 -45 12 -114 83 -46 47 -101 117 -128 162
-45 76 -87 199 -73 213 4 4 19 -7 33 -24 104 -123 128 -147 167 -170 104 -61
175 -19 175 104 0 114 -53 237 -140 327 -71 73 -110 130 -110 161 0 38 47 45
97 14z m-11 -373 c13 -37 20 -67 15 -67 -11 0 -66 84 -80 123 -6 16 -8 33 -5
39 12 18 45 -27 70 -95z m2211 -2163 c85 -65 208 -172 255 -222 84 -90 102
-144 124 -364 23 -244 58 -402 154 -703 78 -243 108 -385 81 -385 -5 0 -30 25
-56 55 -33 39 -54 55 -71 55 -37 0 -47 -38 -40 -155 8 -125 0 -120 -79 54 -62
136 -111 225 -157 284 -44 55 -82 185 -128 434 -22 120 -63 326 -90 458 -62
297 -80 404 -80 465 0 73 15 78 87 24z m4293 -276 c26 -28 34 -60 60 -228 41
-273 140 -569 326 -974 78 -169 308 -619 391 -766 276 -484 353 -632 353 -676
0 -34 -14 -30 -87 22 -35 25 -70 44 -77 41 -10 -4 -12 -26 -8 -86 4 -65 2 -81
-9 -81 -28 0 -61 34 -143 145 -91 121 -145 173 -234 221 -75 41 -106 86 -202
295 -184 398 -530 1008 -795 1399 -72 107 -144 216 -159 242 -26 45 -26 48
-11 72 20 30 142 133 299 250 191 144 253 170 296 124z m-3454 -323 c119 -46
234 -102 297 -143 l39 -26 -7 -90 c-24 -323 -138 -1124 -166 -1167 -15 -23
-33 9 -59 108 -27 105 -80 250 -145 393 -122 273 -168 422 -183 590 -10 114 1
314 18 352 22 47 44 45 206 -17z"/>
<path d="M8290 11862 c-72 -24 -94 -36 -142 -80 -51 -46 -78 -100 -78 -155 0
-73 46 -96 112 -58 18 11 94 31 168 46 253 48 328 73 351 116 19 37 -3 64 -87
105 -70 35 -85 39 -173 41 -72 2 -110 -2 -151 -15z"/>
<path d="M8325 11193 c-125 -20 -332 -103 -387 -156 -40 -37 -44 -68 -18 -145
26 -77 24 -146 -10 -342 -11 -63 -23 -168 -27 -233 -7 -141 -8 -143 -148 -255
-137 -109 -204 -203 -225 -312 -13 -70 2 -110 41 -110 37 0 70 17 183 93 113
76 210 121 328 152 237 62 454 77 943 65 187 -5 341 -7 342 -6 2 1 -36 34 -84
72 -151 120 -205 204 -338 524 -182 438 -273 585 -392 635 -39 16 -157 27
-208 18z m234 -354 c79 -74 232 -407 248 -539 5 -40 2 -51 -17 -70 -17 -17
-30 -21 -53 -17 -243 42 -337 43 -527 7 -58 -11 -108 -20 -111 -20 -11 0 -39
67 -39 93 0 14 4 28 9 32 6 3 47 -4 93 -16 54 -15 93 -20 112 -15 43 11 152
120 183 185 26 51 28 68 33 206 3 83 9 156 13 163 12 18 30 15 56 -9z m-303
-182 c5 -37 3 -51 -10 -66 -25 -28 -64 -35 -92 -16 -37 24 -31 58 21 112 40
41 47 45 60 32 8 -8 18 -36 21 -62z"/>
<path d="M11201 8873 c-104 -51 -178 -275 -169 -512 4 -118 26 -184 63 -189
47 -6 59 29 75 211 13 165 29 198 85 177 17 -6 27 -20 32 -40 6 -35 28 -50 71
-50 37 0 58 24 71 80 27 122 -41 285 -136 326 -41 18 -50 17 -92 -3z"/>
<path d="M12090 8692 c-46 -46 -70 -118 -70 -212 0 -77 15 -105 63 -115 48
-11 84 -50 98 -109 15 -67 26 -86 48 -86 46 0 71 80 71 224 -1 89 -21 220 -40
257 -45 88 -108 103 -170 41z"/>
<path d="M5696 7928 c-48 -76 -48 -481 0 -818 45 -315 140 -674 223 -839 85
-167 440 -519 608 -603 36 -17 69 -28 79 -24 14 5 13 10 -10 39 -153 185 -461
751 -544 997 -91 274 -178 611 -227 890 -45 254 -56 302 -76 342 -22 44 -33
47 -53 16z"/>
<path d="M9895 5529 c-292 -76 -398 -92 -755 -114 -227 -14 -313 -24 -327 -39
-11 -11 29 -46 82 -72 92 -44 219 -65 440 -71 126 -3 226 -1 271 6 212 33 565
253 512 319 -16 19 -61 13 -223 -29z"/>
</g>
</svg>
