<?xml version="1.0" standalone="no"?>
<!DOCTYPE svg PUBLIC "-//W3C//DTD SVG 20010904//EN"
 "http://www.w3.org/TR/2001/REC-SVG-20010904/DTD/svg10.dtd">
<svg version="1.0" xmlns="http://www.w3.org/2000/svg"
 width="1280.000000pt" height="1280.000000pt" viewBox="0 0 1280.000000 1280.000000"
 preserveAspectRatio="xMidYMid meet">
<metadata>
Created by potrace 1.15, written by Peter Selinger 2001-2017
</metadata>
<g transform="translate(0.000000,1280.000000) scale(0.100000,-0.100000)"
fill="#fca5a5" stroke="none">
<path d="M5778 11817 c-181 -183 -247 -237 -385 -313 -152 -84 -477 -278 -579
-347 -112 -75 -204 -162 -559 -532 -156 -163 -335 -314 -395 -333 -64 -21
-293 -62 -440 -78 -209 -23 -262 -16 -375 48 -49 28 -135 81 -191 118 -113 76
-307 177 -424 220 -171 63 -237 104 -357 222 -106 104 -131 120 -132 80 0 -9
-3 -31 -7 -48 -3 -17 3 -77 15 -135 11 -57 25 -142 31 -189 20 -157 71 -454
95 -555 76 -321 300 -811 424 -929 17 -17 31 -34 31 -39 0 -6 -11 -33 -25 -62
-24 -48 -26 -63 -27 -206 -1 -85 2 -171 7 -192 6 -32 0 -63 -35 -177 l-43
-138 -59 -11 c-76 -13 -164 -53 -206 -94 -61 -58 -80 -110 -103 -289 -19 -155
-35 -541 -23 -580 3 -9 20 -27 39 -38 28 -17 49 -21 107 -20 40 1 95 -1 121
-5 44 -7 48 -10 45 -34 -2 -18 -10 -27 -24 -29 -43 -6 -68 -49 -65 -111 3 -63
185 -166 314 -177 39 -3 111 -19 158 -35 48 -16 94 -29 103 -29 25 0 20 -9
-28 -51 -50 -44 -123 -150 -221 -322 -37 -66 -115 -179 -172 -253 -121 -156
-160 -235 -205 -417 -39 -157 -60 -201 -153 -327 -44 -58 -89 -129 -101 -158
-19 -48 -29 -57 -95 -97 -87 -51 -138 -98 -190 -179 -50 -75 -51 -111 -6 -153
90 -86 384 -171 614 -178 61 -1 116 -6 122 -9 17 -11 90 13 101 34 5 10 16 49
24 86 13 60 19 71 59 105 36 31 50 54 76 123 18 47 37 88 42 91 5 4 9 -32 10
-87 0 -111 14 -162 47 -166 42 -6 88 35 146 131 31 51 65 103 76 117 16 20 22
52 31 150 10 118 10 134 -15 282 -15 87 -29 164 -32 171 -3 8 13 29 38 50 24
20 54 46 67 58 13 11 48 37 79 56 30 19 78 53 106 74 72 55 132 73 188 59 84
-23 265 -79 443 -139 251 -83 344 -100 595 -105 158 -4 223 -9 283 -24 43 -11
80 -21 82 -24 3 -2 -11 -33 -30 -69 -29 -54 -35 -74 -35 -129 l0 -65 -72 -66
c-72 -66 -140 -163 -169 -242 -12 -34 -11 -41 5 -72 23 -42 122 -110 190 -131
136 -40 508 -66 537 -36 7 6 38 12 69 12 65 1 117 18 164 53 30 23 35 34 44
100 7 41 16 87 23 103 l11 29 24 -48 c15 -29 31 -47 42 -47 37 0 90 60 141
159 28 55 55 102 59 105 4 2 47 -9 96 -26 50 -16 149 -43 220 -59 72 -16 159
-39 193 -50 l62 -20 76 -142 c89 -165 219 -361 381 -572 102 -134 126 -173
223 -372 78 -157 122 -236 153 -270 24 -26 61 -69 81 -94 46 -57 236 -175 358
-223 l37 -14 -2 -318 c-1 -317 -2 -320 -30 -423 -23 -85 -27 -114 -20 -155 4
-28 8 -91 8 -141 0 -75 -5 -101 -27 -157 -17 -41 -27 -85 -27 -116 0 -33 -13
-84 -39 -153 -74 -198 -74 -227 1 -294 38 -35 44 -37 90 -33 31 3 57 13 71 27
30 27 37 27 37 -4 0 -15 10 -31 25 -41 34 -22 156 -14 211 14 52 27 112 86
121 120 3 15 -3 78 -15 142 -24 131 -18 199 19 229 26 21 59 151 66 261 4 67
1 86 -31 179 -20 57 -36 123 -36 146 0 82 31 252 65 355 48 146 62 218 70 345
5 104 4 115 -24 205 l-31 95 31 35 c82 96 125 166 180 294 33 75 59 143 59
151 0 20 72 29 220 29 100 -1 148 -6 240 -28 200 -48 261 -55 337 -39 l67 13
45 -43 c25 -24 71 -63 101 -87 30 -25 79 -66 108 -92 113 -102 258 -185 467
-268 70 -28 148 -61 174 -74 26 -14 86 -34 135 -45 48 -12 95 -25 105 -30 11
-6 25 -37 36 -78 10 -37 36 -111 58 -163 21 -52 54 -131 72 -175 38 -93 60
-195 75 -355 6 -64 26 -173 46 -250 27 -103 37 -163 41 -255 4 -87 11 -130 24
-156 15 -31 18 -59 16 -195 -2 -230 14 -255 154 -242 37 4 60 14 91 38 36 29
42 31 50 16 37 -65 333 102 368 209 10 31 7 44 -41 152 -37 84 -51 128 -50
158 1 22 4 95 7 162 l5 122 -50 98 c-28 54 -80 139 -117 188 -122 164 -117
144 -124 550 -7 347 -7 351 -34 429 -41 122 -114 233 -205 315 -66 61 -85 86
-131 173 -29 57 -83 157 -120 223 -65 115 -69 128 -105 290 -20 94 -48 204
-60 245 -103 330 -126 440 -132 635 -3 88 -1 192 4 230 6 46 4 132 -4 247 -19
266 -74 441 -214 686 -62 107 -145 214 -355 457 -107 124 -473 479 -550 534
-21 15 -44 44 -54 67 -47 108 -178 299 -321 469 -37 44 -111 132 -164 195
-133 157 -486 494 -645 614 -36 28 -94 75 -130 106 -66 58 -214 170 -330 251
-147 104 -271 175 -443 256 -100 47 -262 123 -360 170 -125 60 -249 108 -417
164 -131 43 -245 79 -254 79 -21 0 -21 -2 11 148 26 124 26 136 27 492 0 282
-5 435 -23 675 -12 171 -25 325 -28 343 -7 40 -56 80 -107 89 -35 6 -38 4
-218 -180z m-3328 -4575 l23 -18 -28 -28 c-25 -25 -29 -26 -44 -12 -10 9 -23
16 -30 16 -21 0 -7 34 19 47 32 16 34 16 60 -5z"/>
</g>
</svg>
